<?xml version="1.0" encoding="UTF-8"?>
<svg width="40px" height="38px" viewBox="0 0 40 38" version="1.1" xmlns="http://www.w3.org/2000/svg" xmlns:xlink="http://www.w3.org/1999/xlink">
    <!-- Generator: Sketch 40.3 (33839) - http://www.bohemiancoding.com/sketch -->
    <title>cart</title>
    <desc>Created with Sketch.</desc>
    <defs></defs>
    <g id="Main-page" stroke="none" stroke-width="1" fill="none" fill-rule="evenodd">
        <g id="Desktop-HD" transform="translate(-555.000000, -1356.000000)" fill="#209ABD">
            <g id="2-section" transform="translate(0.000000, 1200.000000)">
                <g id="cart" transform="translate(555.000000, 156.000000)">
                    <path d="M40,26.905569 L40,9.27845036 L33.8983051,9.27845036 C33.5233898,9.27845036 33.220339,9.58150121 33.220339,9.95641646 C33.220339,10.3313317 33.5233898,10.6343826 33.8983051,10.6343826 L38.6440678,10.6343826 L38.6440678,25.5496368 L7.45762712,25.5496368 L7.45762712,10.6343826 L12.2033898,10.6343826 C12.5783051,10.6343826 12.8813559,10.3313317 12.8813559,9.95641646 C12.8813559,9.58150121 12.5783051,9.27845036 12.2033898,9.27845036 L7.45762712,9.27845036 L7.45762712,3.85472155 C7.45762712,3.4798063 7.15457627,3.17675545 6.77966102,3.17675545 L5.32745763,3.17675545 C5.02440678,2.01065375 3.97220339,1.14285714 2.71186441,1.14285714 C1.21627119,1.14285714 0,2.35912833 0,3.85472155 C0,5.35031477 1.21627119,6.56658596 2.71186441,6.56658596 C3.97220339,6.56658596 5.02440678,5.69878935 5.32745763,4.53268765 L6.10169492,4.53268765 L6.10169492,9.27845036 L6.10169492,9.95641646 L6.10169492,26.2276029 L6.10169492,26.905569 L6.10169492,30.9733656 C6.10169492,31.3482809 6.40474576,31.6513317 6.77966102,31.6513317 L11.5464407,31.6513317 C10.7159322,32.2696368 10.1694915,33.2506538 10.1694915,34.3631961 C10.1694915,36.2323487 11.6901695,37.7530266 13.559322,37.7530266 C15.4284746,37.7530266 16.9491525,36.2323487 16.9491525,34.3631961 C16.9491525,33.2506538 16.4027119,32.2696368 15.5722034,31.6513317 L27.8176271,31.6513317 C26.9871186,32.2696368 26.440678,33.2506538 26.440678,34.3631961 C26.440678,36.2323487 27.9613559,37.7530266 29.8305085,37.7530266 C31.699661,37.7530266 33.220339,36.2323487 33.220339,34.3631961 C33.220339,33.2506538 32.6738983,32.2696368 31.8433898,31.6513317 L35.9322034,31.6513317 C36.3071186,31.6513317 36.6101695,31.3482809 36.6101695,30.9733656 C36.6101695,30.5984504 36.3071186,30.2953995 35.9322034,30.2953995 L7.45762712,30.2953995 L7.45762712,26.905569 L40,26.905569 L40,26.905569 Z M2.71186441,5.21065375 C1.9640678,5.21065375 1.3559322,4.60251816 1.3559322,3.85472155 C1.3559322,3.10692494 1.9640678,2.49878935 2.71186441,2.49878935 C3.21152542,2.49878935 3.6440678,2.77336562 3.87932203,3.17675545 L3.38983051,3.17675545 C3.01491525,3.17675545 2.71186441,3.4798063 2.71186441,3.85472155 C2.71186441,4.2296368 3.01491525,4.53268765 3.38983051,4.53268765 L3.87932203,4.53268765 C3.6440678,4.93607748 3.21152542,5.21065375 2.71186441,5.21065375 L2.71186441,5.21065375 Z M13.559322,36.3970944 C12.4379661,36.3970944 11.5254237,35.4845521 11.5254237,34.3631961 C11.5254237,33.2418402 12.4379661,32.3292978 13.559322,32.3292978 C14.680678,32.3292978 15.5932203,33.2418402 15.5932203,34.3631961 C15.5932203,35.4845521 14.680678,36.3970944 13.559322,36.3970944 L13.559322,36.3970944 Z M29.8305085,36.3970944 C28.7091525,36.3970944 27.7966102,35.4845521 27.7966102,34.3631961 C27.7966102,33.2418402 28.7091525,32.3292978 29.8305085,32.3292978 C30.9518644,32.3292978 31.8644068,33.2418402 31.8644068,34.3631961 C31.8644068,35.4845521 30.9518644,36.3970944 29.8305085,36.3970944 L29.8305085,36.3970944 Z" id="Shape"></path>
                    <path d="M23.2058111,18.9830508 C28.4397094,18.9830508 32.6973366,14.7254237 32.6973366,9.49152542 C32.6973366,4.25762712 28.4397094,0 23.2058111,0 C17.9719128,0 13.7142857,4.25762712 13.7142857,9.49152542 C13.7142857,14.7254237 17.9719128,18.9830508 23.2058111,18.9830508 L23.2058111,18.9830508 Z M23.2058111,1.3559322 C27.6919128,1.3559322 31.3414044,5.00542373 31.3414044,9.49152542 C31.3414044,13.9776271 27.6919128,17.6271186 23.2058111,17.6271186 C18.7197094,17.6271186 15.0702179,13.9776271 15.0702179,9.49152542 C15.0702179,5.00542373 18.7197094,1.3559322 23.2058111,1.3559322 L23.2058111,1.3559322 Z" id="Shape"></path>
                    <path d="M22.0267665,13.5870531 C22.0708343,13.6229853 22.1203258,13.6446802 22.1698173,13.668409 C22.1901563,13.6785785 22.2084614,13.6948497 22.2294783,13.7023073 C22.3040546,13.729426 22.3826987,13.7436633 22.4606648,13.7436633 L22.4606648,13.7436633 L22.4606648,13.7436633 C22.55558,13.7436633 22.6504953,13.7226463 22.7379529,13.6833243 C22.7711732,13.668409 22.796258,13.6385785 22.8274444,13.6182396 C22.87558,13.5863751 22.9271054,13.5612904 22.9671054,13.5158667 L22.9799868,13.5009514 C22.9799868,13.5009514 22.9806648,13.5002734 22.9813427,13.5002734 C22.9813427,13.5002734 22.9820207,13.4995955 22.9820207,13.4989175 L28.3901563,7.41417175 C28.6389698,7.13484972 28.6138851,6.70569718 28.3338851,6.45756158 C28.0538851,6.20807006 27.6254105,6.2331548 27.3772749,6.51383277 L22.3901563,12.1246802 L18.8267665,9.1551887 C18.5372749,8.91586667 18.1115122,8.95451074 17.8715122,9.24196836 C17.6315122,9.53010396 17.6708343,9.95790057 17.9582919,10.1972226 L22.0267665,13.5870531 L22.0267665,13.5870531 Z" id="Shape"></path>
                </g>
            </g>
        </g>
    </g>
</svg>