<?xml version="1.0" encoding="UTF-8"?>
<svg width="40px" height="27px" viewBox="0 0 40 27" version="1.1" xmlns="http://www.w3.org/2000/svg" xmlns:xlink="http://www.w3.org/1999/xlink">
    <!-- Generator: Sketch 40.3 (33839) - http://www.bohemiancoding.com/sketch -->
    <title>commerce</title>
    <desc>Created with Sketch.</desc>
    <defs></defs>
    <g id="Main-page" stroke="none" stroke-width="1" fill="none" fill-rule="evenodd">
        <g id="Desktop-HD" transform="translate(-1131.000000, -1362.000000)" fill="#209ABD">
            <g id="2-section" transform="translate(0.000000, 1200.000000)">
                <g id="commerce" transform="translate(1131.000000, 162.000000)">
                    <path d="M36.4625743,0.147722772 L3.44356436,0.147722772 C1.54475248,0.147722772 0,1.68811881 0,3.58118812 L0,22.859604 C0,24.7526733 1.54475248,26.2930693 3.44356436,26.2930693 L36.4625743,26.2930693 C38.3613861,26.2930693 39.9061386,24.7526733 39.9061386,22.859604 L39.9061386,3.58118812 C39.9059406,1.68811881 38.3613861,0.147722772 36.4625743,0.147722772 L36.4625743,0.147722772 Z M38.530099,22.859604 L38.529901,22.859604 C38.529901,23.9940594 37.6023762,24.9170297 36.4623762,24.9170297 L3.44356436,24.9170297 C2.30356436,24.9170297 1.3760396,23.9942574 1.3760396,22.859604 L1.3760396,3.58118812 C1.3760396,2.44673267 2.30356436,1.52376238 3.44356436,1.52376238 L36.4625743,1.52376238 C37.6025743,1.52376238 38.530099,2.44653465 38.530099,3.58118812 L38.530099,22.859604 L38.530099,22.859604 Z" id="Shape"></path>
                    <rect id="Rectangle-path" x="4.81623762" y="17.3485149" width="14.4487129" height="1.3760396"></rect>
                    <rect id="Rectangle-path" x="20.6409901" y="17.3485149" width="14.4487129" height="1.3760396"></rect>
                    <path d="M6.87465347,13.220396 L11.0085149,13.220396 L12.3845545,13.220396 L14.4544554,13.220396 C15.5893069,13.220396 16.5128713,12.2944554 16.5128713,11.1566337 L16.5128713,9.09207921 L16.5128713,7.7160396 L16.5128713,7.02772277 C16.5128713,5.88990099 15.5893069,4.9639604 14.4544554,4.9639604 L12.3845545,4.9639604 L11.0085149,4.9639604 L6.87465347,4.9639604 C5.73980198,4.9639604 4.81623762,5.88990099 4.81623762,7.02772277 L4.81623762,9.09207921 L4.81623762,10.4681188 L4.81623762,11.1564356 C4.81623762,12.2944554 5.73980198,13.220396 6.87465347,13.220396 L6.87465347,13.220396 Z M12.3845545,6.34 L14.4544554,6.34 C14.8306931,6.34 15.1368317,6.64831683 15.1368317,7.02772277 L15.1368317,7.7160396 L12.3845545,7.7160396 L12.3845545,6.34 L12.3845545,6.34 Z M12.3845545,9.09207921 L15.1366337,9.09207921 L15.1366337,11.1566337 L15.1368317,11.1566337 C15.1368317,11.5423762 14.8372277,11.8443564 14.4544554,11.8443564 L12.3845545,11.8443564 L12.3845545,9.09207921 L12.3845545,9.09207921 Z M6.19227723,7.02772277 C6.19227723,6.6419802 6.49188119,6.34 6.87465347,6.34 L11.0085149,6.34 L11.0085149,7.7160396 L11.0085149,9.09207921 L6.19227723,9.09207921 L6.19227723,7.02772277 L6.19227723,7.02772277 Z M6.19227723,10.4681188 L11.0085149,10.4681188 L11.0085149,11.8441584 L6.87465347,11.8441584 C6.49841584,11.8441584 6.19227723,11.5358416 6.19227723,11.1564356 L6.19227723,10.4681188 L6.19227723,10.4681188 Z" id="Shape"></path>
                </g>
            </g>
        </g>
    </g>
</svg>