<?xml version="1.0" encoding="UTF-8"?>
<svg width="40px" height="29px" viewBox="0 0 40 29" version="1.1" xmlns="http://www.w3.org/2000/svg" xmlns:xlink="http://www.w3.org/1999/xlink">
    <!-- Generator: Sketch 40.3 (33839) - http://www.bohemiancoding.com/sketch -->
    <title>list</title>
    <desc>Created with Sketch.</desc>
    <defs></defs>
    <g id="Main-page" stroke="none" stroke-width="1" fill="none" fill-rule="evenodd">
        <g id="Desktop-HD" transform="translate(-863.000000, -1360.000000)" fill="#209ABD">
            <g id="2-section" transform="translate(0.000000, 1200.000000)">
                <g id="list" transform="translate(863.000000, 160.000000)">
                    <path d="M11.1203906,6.65085937 L9.93914062,6.95523437 C10.0319531,7.3153125 10.0789844,7.68851562 10.0789844,8.064375 C10.0789844,10.506875 8.091875,12.4939062 5.64945312,12.4939062 C3.20703125,12.4939062 1.21984375,10.506875 1.21984375,8.064375 C1.21984375,5.621875 3.206875,3.63484375 5.649375,3.63484375 C6.91945312,3.63484375 8.13039062,4.18148437 8.97164062,5.13453125 L9.88617187,4.32734375 C8.81351562,3.11203125 7.26929687,2.415 5.649375,2.415 C2.53429687,2.415 0,4.94929687 0,8.06445312 C0,11.1796094 2.53429687,13.7138281 5.649375,13.7138281 C8.76445312,13.7138281 11.29875,11.1795312 11.29875,8.06445312 C11.29875,7.58601562 11.23875,7.1103125 11.1203906,6.65085937 L11.1203906,6.65085937 Z" id="Shape"></path>
                    <rect id="Rectangle-path" x="15.4400781" y="3.77351563" width="24.5597656" height="1.21984375"></rect>
                    <rect id="Rectangle-path" x="15.4400781" y="6.29460938" width="4.39148437" height="1.21984375"></rect>
                    <rect id="Rectangle-path" x="15.4400781" y="8.815625" width="24.5597656" height="1.21984375"></rect>
                    <rect id="Rectangle-path" x="15.4400781" y="11.3366406" width="19.5176562" height="1.21984375"></rect>
                    <polygon id="Shape" points="14.6670312 0.07390625 6.27929687 8.46179688 4.19085937 6.37320313 3.32835937 7.23578125 6.27929687 10.1867969 15.5296094 0.936484375"></polygon>
                    <path d="M11.1203906,21.7692969 L9.9390625,22.0735937 C10.031875,22.4336719 10.0789062,22.806875 10.0789062,23.1826562 C10.0789062,25.6251562 8.09179688,27.6121875 5.649375,27.6121875 C3.20695313,27.6121875 1.21984375,25.6251562 1.21984375,23.1827344 C1.21984375,20.7402344 3.206875,18.7532031 5.649375,18.7532031 C6.91945313,18.7532031 8.13039063,19.2998437 8.97164063,20.2528906 L9.88617188,19.4457031 C8.81351563,18.2303906 7.26929688,17.5333594 5.649375,17.5333594 C2.53429687,17.5334375 0,20.0677344 0,23.1828125 C0,26.2978906 2.53429687,28.8321875 5.649375,28.8321875 C8.76445312,28.8321875 11.29875,26.2978906 11.29875,23.1828125 C11.29875,22.704375 11.23875,22.2288281 11.1203906,21.7692969 L11.1203906,21.7692969 Z" id="Shape"></path>
                    <rect id="Rectangle-path" x="15.4400781" y="18.8184375" width="24.5597656" height="1.21984375"></rect>
                    <rect id="Rectangle-path" x="15.4400781" y="21.4207812" width="4.39148437" height="1.21984375"></rect>
                    <rect id="Rectangle-path" x="15.4400781" y="23.8604687" width="24.5597656" height="1.21984375"></rect>
                    <rect id="Rectangle-path" x="15.4400781" y="26.4628125" width="19.5176562" height="1.21984375"></rect>
                    <polygon id="Shape" points="14.6670312 15.1922656 6.27929687 23.5800781 4.19085937 21.4915625 3.32835937 22.3542188 6.27929687 25.3051563 15.5296094 16.0548438"></polygon>
                </g>
            </g>
        </g>
    </g>
</svg>