<?xml version="1.0" encoding="UTF-8"?><svg width="40" height="185" viewBox="0 0 40 185" xmlns="http://www.w3.org/2000/svg" xmlns:xlink="http://www.w3.org/1999/xlink"><svg width="40" height="38" viewBox="0 0 40 38" id="cart"><title>cart</title><g fill="#209ABD" fill-rule="evenodd"><path d="M40 26.906V9.278h-6.102a.677.677 0 1 0 0 1.356h4.746V25.55H7.458V10.634h4.745a.677.677 0 1 0 0-1.356H7.458V3.855a.677.677 0 0 0-.678-.678H5.327a2.709 2.709 0 0 0-2.615-2.034A2.715 2.715 0 0 0 0 3.855a2.715 2.715 0 0 0 2.712 2.712c1.26 0 2.312-.868 2.615-2.034h.775v26.44c0 .375.303.678.678.678h4.766a3.378 3.378 0 0 0-1.377 2.712c0 1.87 1.521 3.39 3.39 3.39 1.87 0 3.39-1.52 3.39-3.39a3.378 3.378 0 0 0-1.377-2.712h12.246a3.378 3.378 0 0 0-1.377 2.712c0 1.87 1.52 3.39 3.39 3.39 1.869 0 3.39-1.52 3.39-3.39a3.378 3.378 0 0 0-1.378-2.712h4.09a.677.677 0 1 0 0-1.356H7.457v-3.39H40zM2.712 5.21a1.357 1.357 0 0 1-1.356-1.356 1.352 1.352 0 1 1 2.523-.678h-.49a.677.677 0 1 0 0 1.356h.49a1.352 1.352 0 0 1-1.167.678zm10.847 31.186a2.036 2.036 0 0 1-2.034-2.034c0-1.121.913-2.034 2.034-2.034 1.122 0 2.034.913 2.034 2.034a2.036 2.036 0 0 1-2.034 2.034zm16.272 0a2.036 2.036 0 0 1-2.034-2.034c0-1.121.912-2.034 2.034-2.034 1.12 0 2.033.913 2.033 2.034a2.036 2.036 0 0 1-2.033 2.034z"/><path d="M23.206 18.983c5.234 0 9.491-4.258 9.491-9.491C32.697 4.258 28.44 0 23.206 0s-9.492 4.258-9.492 9.492c0 5.233 4.258 9.491 9.492 9.491zm0-17.627c4.486 0 8.135 3.65 8.135 8.136 0 4.486-3.65 8.135-8.135 8.135-4.486 0-8.136-3.65-8.136-8.135 0-4.487 3.65-8.136 8.136-8.136z"/><path d="M22.027 13.587c.044.036.093.058.143.081.02.01.038.027.06.034a.678.678 0 0 0 .508-.019c.033-.015.058-.044.09-.065.048-.032.1-.057.14-.102l.012-.015h.001l.001-.002 5.408-6.085a.677.677 0 1 0-1.013-.9l-4.987 5.61-3.563-2.969a.679.679 0 0 0-.869 1.042l4.069 3.39z"/></g></svg><svg width="36" height="35" viewBox="0 0 36 35" id="cart_header" y="38"><title>shopping_cart [#1136]</title><path d="M27.467 30.823H8.533L6.155 16.517h24.013l-2.701 14.306zm3.022-17.882L23.312.52l-3.09 1.767 6.148 10.653H9.632L15.78 2.31 12.69.5 5.51 12.94H.159v3.577h2.38L5.511 34.4h24.978l2.975-17.883h2.378v-3.576H30.49z" fill="#1B596B" fill-rule="evenodd"/></svg><svg width="16" height="16" viewBox="0 0 16 16" id="close" y="73"><title>close [#1511]</title><path d="M9.157 8L16 14.843 14.842 16 8 9.157 1.157 16 0 14.843 6.842 8 0 1.157 1.157 0 8 6.843 14.842 0 16 1.157z" fill="#F0F0F0" fill-rule="evenodd"/></svg><svg width="40" height="27" viewBox="0 0 40 27" id="commerce" y="89"><title>commerce</title><g fill="#209ABD" fill-rule="evenodd"><path d="M36.463.148H3.443A3.443 3.443 0 0 0 0 3.58V22.86a3.443 3.443 0 0 0 3.444 3.433h33.019a3.443 3.443 0 0 0 3.443-3.433V3.58A3.443 3.443 0 0 0 36.463.148zM38.53 22.86a2.065 2.065 0 0 1-2.068 2.057H3.444a2.065 2.065 0 0 1-2.068-2.057V3.58c0-1.134.928-2.057 2.068-2.057h33.019c1.14 0 2.067.923 2.067 2.057V22.86z"/><path d="M4.816 17.349h14.449v1.376H4.816zM20.641 17.349H35.09v1.376H20.641zM6.875 13.22h7.58a2.064 2.064 0 0 0 2.058-2.063V7.028a2.064 2.064 0 0 0-2.059-2.064H6.875a2.064 2.064 0 0 0-2.059 2.064v4.128c0 1.138.924 2.064 2.059 2.064zm5.51-6.88h2.07c.376 0 .682.308.682.688v.688h-2.752V6.34zm0 2.752h2.752v2.065c0 .385-.3.687-.683.687h-2.07V9.092zM6.192 7.028c0-.386.3-.688.683-.688h4.134v2.752H6.192V7.028zm0 3.44h4.817v1.376H6.875a.686.686 0 0 1-.683-.688v-.688z"/></g></svg><svg width="40" height="29" viewBox="0 0 40 29" id="list" y="116"><title>list</title><g fill="#209ABD" fill-rule="evenodd"><path d="M11.12 6.65l-1.18.305a4.435 4.435 0 0 1-4.29 5.539 4.435 4.435 0 0 1-4.43-4.43 4.434 4.434 0 0 1 4.43-4.43c1.27 0 2.48.547 3.322 1.5l.914-.807A5.654 5.654 0 0 0 5.65 2.415 5.656 5.656 0 0 0 0 8.065a5.656 5.656 0 0 0 5.65 5.649 5.656 5.656 0 0 0 5.47-7.063zM15.44 3.774H40v1.22H15.44zM15.44 6.295h4.391v1.22H15.44zM15.44 8.816H40v1.22H15.44zM15.44 11.337h19.518v1.22H15.44z"/><path d="M14.667.074L6.279 8.462 4.191 6.373l-.863.863 2.951 2.95 9.25-9.25zM11.12 21.77l-1.18.304a4.435 4.435 0 0 1-4.29 5.539 4.435 4.435 0 0 1-4.43-4.43 4.434 4.434 0 0 1 4.43-4.43c1.27 0 2.48.547 3.322 1.5l.914-.807a5.654 5.654 0 0 0-4.237-1.913A5.656 5.656 0 0 0 0 23.183a5.656 5.656 0 0 0 5.65 5.65 5.656 5.656 0 0 0 5.47-7.064zM15.44 18.818H40v1.22H15.44zM15.44 21.421h4.391v1.22H15.44zM15.44 23.86H40v1.22H15.44zM15.44 26.463h19.518v1.22H15.44z"/><path d="M14.667 15.192L6.279 23.58l-2.088-2.088-.863.862 2.951 2.951 9.25-9.25z"/></g></svg><svg width="40" height="40" viewBox="0 0 40 40" id="search" y="145"><title>search</title><g fill="#209ABD" fill-rule="evenodd"><path d="M39.813 36.503L29.399 26.09a.638.638 0 0 0-.903 0l-.752.752-1.514-1.514a14.997 14.997 0 0 0 3.983-10.22c0-4.036-1.572-7.83-4.425-10.682A15.008 15.008 0 0 0 15.106 0 15.007 15.007 0 0 0 4.425 4.425 15.008 15.008 0 0 0 0 15.106c0 4.035 1.571 7.829 4.425 10.682a15.008 15.008 0 0 0 10.681 4.425c3.822 0 7.426-1.41 10.22-3.983l1.515 1.514-.752.752a.638.638 0 0 0 0 .903l10.414 10.414a.636.636 0 0 0 .903 0l2.407-2.407a.638.638 0 0 0 0-.903zM5.327 24.886a13.74 13.74 0 0 1-4.05-9.78 13.74 13.74 0 0 1 4.05-9.779 13.739 13.739 0 0 1 9.78-4.05 13.74 13.74 0 0 1 9.779 4.05 13.739 13.739 0 0 1 4.05 9.78 13.74 13.74 0 0 1-4.05 9.779 13.739 13.739 0 0 1-9.78 4.05 13.74 13.74 0 0 1-9.779-4.05zm31.628 13.573l-9.512-9.511 1.505-1.505 9.511 9.512-1.504 1.504z"/><path d="M15.106 11.915a3.195 3.195 0 0 0-3.191 3.191 3.195 3.195 0 0 0 3.191 3.192 3.195 3.195 0 0 0 3.192-3.192 3.195 3.195 0 0 0-3.192-3.191zm0 5.106a1.917 1.917 0 0 1-1.915-1.915c0-1.056.86-1.915 1.915-1.915 1.056 0 1.915.86 1.915 1.915a1.917 1.917 0 0 1-1.915 1.915z"/><path d="M20.29 12.63l1.51-1.509c.22-.22.249-.567.068-.821a8.315 8.315 0 0 0-1.955-1.955.638.638 0 0 0-.821.068l-1.51 1.51a5.717 5.717 0 0 0-.56-.234V7.555a.638.638 0 0 0-.533-.63 8.367 8.367 0 0 0-1.383-.116c-.455 0-.92.039-1.382.116a.638.638 0 0 0-.533.63v2.134c-.19.068-.377.145-.56.233l-1.51-1.509a.638.638 0 0 0-.821-.069A8.316 8.316 0 0 0 8.345 10.3a.638.638 0 0 0 .068.821l1.51 1.51c-.088.183-.166.37-.234.56H7.555a.638.638 0 0 0-.63.533 8.37 8.37 0 0 0-.116 1.382c0 .456.039.921.116 1.383a.638.638 0 0 0 .63.532h2.134c.068.19.145.378.233.561l-1.509 1.51a.638.638 0 0 0-.068.821 8.318 8.318 0 0 0 1.955 1.955c.254.181.6.152.821-.068l1.51-1.51c.183.088.37.166.56.234v2.134c0 .312.226.578.533.63.462.077.927.116 1.382.116.456 0 .921-.039 1.383-.116a.638.638 0 0 0 .532-.63v-2.134c.191-.068.378-.146.561-.234l1.51 1.51c.22.22.567.249.821.068a8.316 8.316 0 0 0 1.955-1.955.638.638 0 0 0-.068-.821l-1.51-1.51c.088-.183.166-.37.234-.56h2.134a.638.638 0 0 0 .63-.533c.077-.462.116-.927.116-1.383 0-.455-.039-.92-.116-1.382a.638.638 0 0 0-.63-.533h-2.134a5.76 5.76 0 0 0-.234-.56zm1.838 2.476c0 .211-.01.424-.03.639h-2.046a.638.638 0 0 0-.618.479 4.436 4.436 0 0 1-.479 1.15.638.638 0 0 0 .099.777l1.447 1.447c-.273.328-.575.63-.903.903l-1.447-1.447a.638.638 0 0 0-.776-.099c-.362.215-.75.375-1.151.479a.638.638 0 0 0-.48.618v2.046c-.428.04-.848.04-1.276 0v-2.046a.638.638 0 0 0-.48-.618 4.436 4.436 0 0 1-1.15-.479.638.638 0 0 0-.776.099L10.615 20.5a7.033 7.033 0 0 1-.903-.903l1.447-1.447a.638.638 0 0 0 .098-.776 4.439 4.439 0 0 1-.478-1.151.638.638 0 0 0-.618-.48H8.115a6.931 6.931 0 0 1 0-1.276h2.046a.638.638 0 0 0 .618-.479c.103-.401.264-.789.478-1.151a.638.638 0 0 0-.098-.776l-1.447-1.447c.273-.328.575-.63.903-.903l1.447 1.447a.638.638 0 0 0 .776.099c.362-.215.75-.376 1.15-.479a.638.638 0 0 0 .48-.618V8.115c.428-.04.848-.04 1.277 0v2.046c0 .291.197.546.479.618.401.103.788.264 1.15.478.252.149.57.108.777-.098l1.447-1.447c.328.273.63.575.903.903l-1.447 1.447a.638.638 0 0 0-.099.776c.214.362.375.75.479 1.15.072.283.327.48.618.48h2.046c.02.214.03.428.03.638z"/><path d="M24.28 7.841a.638.638 0 0 0-1 .794c3.29 4.144 2.946 10.096-.802 13.843-4.065 4.065-10.679 4.065-14.744 0-4.064-4.065-4.064-10.679 0-14.744a10.415 10.415 0 0 1 13.844-.802.638.638 0 0 0 .794-1c-4.653-3.693-11.334-3.307-15.54.9-4.563 4.562-4.563 11.986 0 16.549a11.666 11.666 0 0 0 8.274 3.422c2.997 0 5.994-1.14 8.275-3.422 4.206-4.206 4.593-10.887.9-15.54z"/></g></svg></svg>