<?xml version="1.0" encoding="UTF-8"?>
<svg width="40px" height="40px" viewBox="0 0 40 40" version="1.1" xmlns="http://www.w3.org/2000/svg" xmlns:xlink="http://www.w3.org/1999/xlink">
    <!-- Generator: Sketch 40.3 (33839) - http://www.bohemiancoding.com/sketch -->
    <title>search</title>
    <desc>Created with Sketch.</desc>
    <defs></defs>
    <g id="Main-page" stroke="none" stroke-width="1" fill="none" fill-rule="evenodd">
        <g id="Desktop-HD" transform="translate(-283.000000, -1355.000000)" fill="#209ABD">
            <g id="2-section" transform="translate(0.000000, 1200.000000)">
                <g id="search" transform="translate(283.000000, 155.000000)">
                    <path d="M39.8130213,36.503234 L29.3989787,26.0891064 C29.1497021,25.8398298 28.7455319,25.8398298 28.4963404,26.0891064 L27.7440851,26.8413617 L26.2295319,25.3268085 C28.8025532,22.5322553 30.212766,18.9279149 30.212766,15.106383 C30.212766,11.0713191 28.6414468,7.27778723 25.7881702,4.42459574 C22.9348936,1.57140426 19.1414468,0 15.106383,0 C11.0713191,0 7.27778723,1.57131915 4.42459574,4.42459574 C1.57140426,7.27787234 0,11.0713191 0,15.106383 C0,19.1414468 1.57131915,22.9349787 4.42459574,25.7881702 C7.27787234,28.6413617 11.0713191,30.212766 15.106383,30.212766 C18.9279149,30.212766 22.5322553,28.8025532 25.3268936,26.2295319 L26.8414468,27.7440851 L26.0891915,28.4963404 C25.8399149,28.745617 25.8399149,29.1497872 26.0891915,29.3989787 L36.503234,39.8130213 C36.6278298,39.937617 36.791234,40 36.9545532,40 C37.1178723,40 37.2812766,39.9377021 37.4058723,39.8130213 L39.8130213,37.4058723 C40.0622979,37.1565957 40.0622979,36.7524255 39.8130213,36.503234 L39.8130213,36.503234 Z M5.32723404,24.8855319 C2.71514894,22.2733617 1.27659574,18.8004255 1.27659574,15.106383 C1.27659574,11.4123404 2.71514894,7.93940426 5.32723404,5.32723404 C7.93931915,2.71506383 11.4123404,1.27659574 15.106383,1.27659574 C18.8004255,1.27659574 22.2733617,2.71514894 24.8855319,5.32723404 C27.4977021,7.93931915 28.9361702,11.4123404 28.9361702,15.106383 C28.9361702,18.8004255 27.497617,22.2733617 24.8855319,24.8855319 C22.2734468,27.4977021 18.8004255,28.9361702 15.106383,28.9361702 C11.4123404,28.9361702 7.93940426,27.497617 5.32723404,24.8855319 L5.32723404,24.8855319 Z M36.9545532,38.4590638 L27.4431489,28.9476596 L28.9476596,27.4431489 L38.4590638,36.9545532 L36.9545532,38.4590638 L36.9545532,38.4590638 Z" id="Shape"></path>
                    <path d="M15.106383,11.9148936 C13.3465532,11.9148936 11.9148936,13.3465532 11.9148936,15.106383 C11.9148936,16.8662128 13.3465532,18.2978723 15.106383,18.2978723 C16.8662128,18.2978723 18.2978723,16.8662128 18.2978723,15.106383 C18.2978723,13.3465532 16.8662128,11.9148936 15.106383,11.9148936 L15.106383,11.9148936 Z M15.106383,17.0212766 C14.0504681,17.0212766 13.1914894,16.1622979 13.1914894,15.106383 C13.1914894,14.0504681 14.0504681,13.1914894 15.106383,13.1914894 C16.1622979,13.1914894 17.0212766,14.0504681 17.0212766,15.106383 C17.0212766,16.1622979 16.1622979,17.0212766 15.106383,17.0212766 L15.106383,17.0212766 Z" id="Shape"></path>
                    <path d="M20.2904681,12.630383 L21.7996596,11.1211915 C22.0200851,10.9008511 22.0490213,10.5535319 21.8682553,10.2995745 C21.3286809,9.54178723 20.6708085,8.884 19.9131064,8.34451064 C19.659234,8.16365957 19.3119149,8.19276596 19.0915745,8.41310638 L17.582383,9.92229787 C17.3991489,9.83446809 17.2119149,9.75659574 17.0212766,9.68902128 L17.0212766,7.5547234 C17.0212766,7.24297872 16.7960851,6.97685106 16.4886809,6.9252766 C16.0273191,6.84774468 15.5622128,6.80851064 15.106383,6.80851064 C14.6505532,6.80851064 14.1854468,6.84774468 13.7240851,6.9252766 C13.4166809,6.97685106 13.1914894,7.24297872 13.1914894,7.5547234 L13.1914894,9.68902128 C13.0008511,9.75659574 12.813617,9.83446809 12.630383,9.92229787 L11.1211915,8.41310638 C10.9008511,8.19276596 10.553617,8.16374468 10.2996596,8.34442553 C9.54187234,8.884 8.88408511,9.54178723 8.34451064,10.2995745 C8.16374468,10.5534468 8.19276596,10.900766 8.41319149,11.1211064 L9.92238298,12.6302979 C9.83455319,12.8135319 9.75668085,13.000766 9.68910638,13.1914043 L7.5547234,13.1914043 C7.24297872,13.1914043 6.97685106,13.4165957 6.9252766,13.724 C6.84774468,14.1854468 6.80851064,14.6505532 6.80851064,15.106383 C6.80851064,15.5621277 6.84774468,16.027234 6.9252766,16.4886809 C6.97685106,16.7960851 7.24297872,17.0212766 7.5547234,17.0212766 L9.68910638,17.0212766 C9.75668085,17.2119149 9.83446809,17.3991489 9.92238298,17.582383 L8.41319149,19.0915745 C8.19276596,19.3119149 8.16382979,19.659234 8.34459574,19.9131915 C8.88417021,20.6708936 9.54195745,21.3286809 10.2996596,21.8682553 C10.553617,22.0491064 10.9008511,22.02 11.1212766,21.7996596 L12.6304681,20.2904681 C12.813617,20.3782979 13.0009362,20.4561702 13.1915745,20.5237447 L13.1915745,22.6581277 C13.1915745,22.9698723 13.416766,23.236 13.7241702,23.2875745 C14.1855319,23.3650213 14.6506383,23.4043404 15.1064681,23.4043404 C15.5622979,23.4043404 16.0274043,23.3651064 16.488766,23.2875745 C16.7961702,23.236 17.0213617,22.9698723 17.0213617,22.6581277 L17.0213617,20.5237447 C17.212,20.4561702 17.399234,20.378383 17.5824681,20.2904681 L19.0916596,21.7996596 C19.312,22.0200851 19.6593191,22.0490213 19.9131915,21.8682553 C20.6709787,21.3286809 21.328766,20.6708936 21.8683404,19.9131064 C22.0491064,19.659234 22.0200851,19.3119149 21.7997447,19.0915745 L20.2905532,17.582383 C20.378383,17.399234 20.4562553,17.2119149 20.5238298,17.0212766 L22.6582128,17.0212766 C22.9699574,17.0212766 23.2360851,16.7960851 23.2876596,16.4886809 C23.3651064,16.0273191 23.4044255,15.5622128 23.4044255,15.106383 C23.4044255,14.6505532 23.3651915,14.1854468 23.2876596,13.7240851 C23.2360851,13.4166809 22.9699574,13.1914894 22.6582128,13.1914894 L20.5238298,13.1914894 C20.4560851,13.0008511 20.3782979,12.813617 20.2904681,12.630383 L20.2904681,12.630383 Z M22.1276596,15.106383 C22.1276596,15.3171064 22.1177021,15.5304681 22.0978723,15.7446809 L20.0518298,15.7446809 C19.7605957,15.7446809 19.5062128,15.9417872 19.4337021,16.2239149 C19.330383,16.6253617 19.1694468,17.0125957 18.9554043,17.3748085 C18.807234,17.625617 18.8475745,17.9449362 19.053617,18.1508936 L20.5006809,19.5979574 C20.2275745,19.9257872 19.9257872,20.2275745 19.5979574,20.5006809 L18.1508936,19.053617 C17.9449362,18.8476596 17.6257021,18.807234 17.3748936,18.9554043 C17.0125106,19.1695319 16.6251915,19.3304681 16.2239149,19.4337872 C15.9418723,19.506383 15.7446809,19.7606809 15.7446809,20.0519149 L15.7446809,22.0979574 C15.3163404,22.137617 14.8964255,22.137617 14.4680851,22.0979574 L14.4680851,20.0519149 C14.4680851,19.7606809 14.2709787,19.5062979 13.9888511,19.4337872 C13.5874043,19.3304681 13.2001702,19.1695319 12.8379574,18.9554894 C12.5870638,18.8073191 12.2678298,18.8476596 12.0618723,19.0537021 L10.6148085,20.5006809 C10.2869787,20.2275745 9.9852766,19.9258723 9.71217021,19.5980426 L11.1591489,18.1509787 C11.3651064,17.9450213 11.4055319,17.6257872 11.2573617,17.3749787 C11.043234,17.0125957 10.8822979,16.6252766 10.7789787,16.224 C10.706383,15.9419574 10.4520851,15.744766 10.1608511,15.744766 L8.11489362,15.744766 C8.09506383,15.5305532 8.08510638,15.3171915 8.08510638,15.1064681 C8.08510638,14.8957447 8.09506383,14.682383 8.11489362,14.4681702 L10.1608511,14.4681702 C10.4520851,14.4681702 10.706383,14.2710638 10.7789787,13.9890213 C10.8822979,13.5876596 11.043234,13.2004255 11.2573617,12.8380426 C11.4055319,12.587234 11.3651064,12.268 11.1591489,12.0620426 L9.71217021,10.6149787 C9.9852766,10.2871489 10.2869787,9.98544681 10.6148085,9.71234043 L12.0618723,11.1593191 C12.2678298,11.3652766 12.5871489,11.4057021 12.8378723,11.2575319 C13.2002553,11.0434043 13.5875745,10.8824681 13.9888511,10.7791489 C14.2708936,10.7065532 14.468,10.4522553 14.468,10.1610213 L14.468,8.11489362 C14.8963404,8.07523404 15.3162553,8.07523404 15.7445957,8.11489362 L15.7445957,10.1609362 C15.7445957,10.4521702 15.9417021,10.7065532 16.2238298,10.7790638 C16.6251064,10.8822979 17.0124255,11.043234 17.3748085,11.2574468 C17.6255319,11.4055319 17.9448511,11.3651915 18.1508085,11.159234 L19.5978723,9.71217021 C19.9257021,9.9852766 20.2274043,10.2870638 20.5005106,10.6148936 L19.0535319,12.0619574 C18.8475745,12.2679149 18.8071489,12.587234 18.9553191,12.8380426 C19.1693617,13.2003404 19.3302979,13.5875745 19.433617,13.9889362 C19.5062128,14.2709787 19.7605106,14.4681702 20.0517447,14.4681702 L22.0977872,14.4681702 C22.1177021,14.6822979 22.1276596,14.8956596 22.1276596,15.106383 L22.1276596,15.106383 Z" id="Shape"></path>
                    <path d="M24.2801702,7.84102128 C24.0609362,7.56493617 23.6595745,7.51880851 23.3834043,7.73795745 C23.1073191,7.95710638 23.0611915,8.3586383 23.2803404,8.6347234 C26.5706383,12.7794043 26.2258723,18.7308085 22.478383,22.4782979 C18.4134468,26.543234 11.7993191,26.543234 7.73446809,22.4782979 C3.66961702,18.4133617 3.66953191,11.799234 7.73446809,7.73438298 C11.4819574,3.98680851 17.4333617,3.64221277 21.5780426,6.93242553 C21.8540426,7.15157447 22.2555745,7.10544681 22.4748085,6.8293617 C22.6940426,6.5532766 22.6478298,6.15174468 22.3717447,5.93259574 C17.7188085,2.23880851 11.0381277,2.6253617 6.83174468,6.83165957 C2.26910638,11.3942979 2.26910638,18.8182979 6.83174468,23.3809362 C9.11310638,25.6622979 12.1097021,26.8028936 15.106383,26.8028936 C18.1030638,26.8028936 21.0996596,25.6622128 23.3810213,23.3809362 C27.5874043,19.1746383 27.9738723,12.4939574 24.2801702,7.84102128 L24.2801702,7.84102128 Z" id="Shape"></path>
                </g>
            </g>
        </g>
    </g>
</svg>